<svg width="74" height="74" xmlns="http://www.w3.org/2000/svg" xmlns:xlink="http://www.w3.org/1999/xlink" xml:space="preserve" overflow="hidden"><g transform="translate(-772 -320)"><path d="M814.396 325.396C814.396 324.544 813.706 323.854 812.854 323.854L805.146 323.854C804.294 323.854 803.604 324.544 803.604 325.396L803.604 330.792 814.396 330.792Z"/><path d="M823.646 351.336C823.642 350.122 823.356 348.926 822.809 347.842L815.019 333.104 802.981 333.104 795.167 347.89C794.634 348.96 794.356 350.14 794.354 351.336L794.354 353.531C794.355 354.784 794.764 356.002 795.521 357 794.764 357.998 794.355 359.216 794.354 360.469L794.354 361.24C794.355 362.492 794.764 363.71 795.521 364.708 794.764 365.706 794.355 366.924 794.354 368.177L794.354 368.948C794.355 370.2 794.764 371.419 795.521 372.417 794.764 373.415 794.355 374.633 794.354 375.885L794.354 383.208C794.359 387.038 797.462 390.141 801.292 390.146L816.708 390.146C820.538 390.141 823.641 387.038 823.646 383.208L823.646 375.885C823.645 374.633 823.236 373.415 822.479 372.417 823.236 371.419 823.645 370.2 823.646 368.948L823.646 368.177C823.645 366.924 823.236 365.706 822.479 364.708 823.236 363.71 823.645 362.492 823.646 361.24L823.646 360.469C823.645 359.216 823.236 357.998 822.479 357 823.236 356.002 823.645 354.784 823.646 353.531ZM819.021 353.531C819.021 354.17 818.503 354.688 817.865 354.688L815.167 354.688 815.167 359.312 817.865 359.312C818.503 359.312 819.021 359.83 819.021 360.469L819.021 361.24C819.021 361.878 818.503 362.396 817.865 362.396L815.167 362.396 815.167 367.021 817.865 367.021C818.503 367.021 819.021 367.539 819.021 368.177L819.021 368.948C819.021 369.586 818.503 370.104 817.865 370.104L815.167 370.104 815.167 374.729 817.865 374.729C818.503 374.729 819.021 375.247 819.021 375.885L819.021 383.208C819.021 384.486 817.986 385.521 816.708 385.521L801.292 385.521C800.014 385.521 798.979 384.486 798.979 383.208L798.979 375.885C798.979 375.247 799.497 374.729 800.135 374.729L802.833 374.729 802.833 370.104 800.135 370.104C799.497 370.104 798.979 369.586 798.979 368.948L798.979 368.177C798.979 367.539 799.497 367.021 800.135 367.021L802.833 367.021 802.833 362.396 800.135 362.396C799.497 362.396 798.979 361.878 798.979 361.24L798.979 360.469C798.979 359.83 799.497 359.312 800.135 359.312L802.833 359.312 802.833 354.688 800.135 354.688C799.497 354.688 798.979 354.17 798.979 353.531L798.979 351.336C798.978 350.875 799.081 350.42 799.281 350.004L805.769 337.729 812.231 337.729 818.696 349.957C818.909 350.385 819.02 350.857 819.021 351.336Z"/></g></svg>